<?xml version="1.0" encoding="UTF-8"?>
<svg width="80px" height="80px" viewBox="0 0 80 80" version="1.1" xmlns="http://www.w3.org/2000/svg" xmlns:xlink="http://www.w3.org/1999/xlink">
    <!-- Generator: Sketch 52.6 (67491) - http://www.bohemiancoding.com/sketch -->
    <title>1</title>
    <desc>Created with Sketch.</desc>
    <g id="Page-1" stroke="none" stroke-width="1" fill="none" fill-rule="evenodd">
        <g id="Main" transform="translate(-250.000000, -1533.000000)" fill="#1ABC9C">
            <g id="Group-12" transform="translate(250.000000, 1533.000000)">
                <g id="1" transform="translate(40.000000, 40.000000) scale(-1, 1) translate(-40.000000, -40.000000) ">
                    <rect id="Rectangle" transform="translate(39.343988, 39.344751) rotate(-60.005000) translate(-39.343988, -39.344751) " x="38.0325123" y="38.0332754" width="2.62295082" height="2.62295082"></rect>
                    <path d="M45.9016393,52.4590164 L45.9016393,47.2131148 C45.9016393,46.4888069 45.3144718,45.9016393 44.5901639,45.9016393 L43.2786885,45.9016393 L43.2786885,42.8157377 C43.5088005,42.5534847 43.7126189,42.269281 43.8872131,41.9672131 L45.1986885,39.6957377 L54.2859016,44.9416393 C54.9131545,45.3037762 55.7152126,45.0888763 56.077377,44.4616393 L57.3888525,42.1901639 L67.6104918,48.0918033 C68.2377447,48.4539401 69.0398028,48.2390402 69.4019672,47.6118033 L72.8118033,49.5790164 L72.1560656,50.7147541 L74.427541,52.0262295 L75.7390164,49.7547541 L77.0504918,47.4832787 L79.6734426,42.9403279 L77.4019672,41.6288525 L76.7462295,42.7632787 L73.3363934,40.7960656 C73.6985303,40.1688127 73.4836304,39.3667546 72.8563934,39.0045902 L71.7206557,38.3488525 L73.6878689,34.9390164 C73.989246,35.1128121 74.3473287,35.1597398 74.6833122,35.069472 C75.0192956,34.9792041 75.3056457,34.7591381 75.4793443,34.4577049 L78.1022951,29.9147541 C78.4644319,29.2875012 78.249532,28.4854431 77.6222951,28.1232787 L70.802623,24.1888525 C70.1753701,23.8267156 69.373312,24.0416155 69.0111475,24.6688525 L66.3881967,29.2118033 C66.0260599,29.8390561 66.2409598,30.6411143 66.8681967,31.0032787 L64.9009836,34.4131148 L62.6308197,33.1016393 L63.9422951,30.8301639 C64.3044319,30.2029111 64.089532,29.400853 63.4622951,29.0386885 L27.117377,8.05508197 L27.7731148,6.91803279 C27.9469105,6.61665563 27.9938382,6.2585729 27.9035703,5.92258948 C27.8133025,5.58660606 27.5932365,5.3002559 27.2918033,5.12655738 L20.4721311,1.19213115 C19.8448783,0.829994313 19.0428202,1.04489422 18.6806557,1.67213115 L18.6203279,1.77704918 C14.4078689,0.188852459 9.25901639,2.2557377 6.62032787,6.82491803 C3.98163934,11.3940984 4.77770492,16.8904918 8.26229508,19.7442623 L8.20327869,19.8478689 C7.84025833,20.473749 8.05269786,21.2753855 8.67803279,21.6393443 L15.4977049,25.5737705 C15.7990411,25.7480915 16.1573216,25.7954518 16.4936026,25.7054161 C16.8298835,25.6153804 17.1165695,25.395337 17.2904918,25.0937705 L17.9462295,23.9580328 L36.1180328,34.4498361 L34.8065574,36.7213115 C33.6726906,38.6595216 33.9162693,41.1074883 35.4098361,42.7842623 L35.4098361,45.9016393 L34.0983607,45.9016393 C33.3740528,45.9016393 32.7868852,46.4888069 32.7868852,47.2131148 L32.7868852,52.4590164 C32.79112,52.6706963 32.8479043,52.8780043 32.9521311,53.0622951 L8.25311475,77.7613115 L10.107541,79.6157377 L26.2295082,63.4937705 L38.0327869,75.2970492 L38.0327869,78.6885246 L40.6557377,78.6885246 L40.6557377,75.2970492 L52.4590164,63.4937705 L68.5809836,79.6157377 L70.4354098,77.7613115 L45.7363934,53.0622951 C45.8406202,52.8780043 45.8974046,52.6706963 45.9016393,52.4590164 Z M74.7763934,46.1718033 L74.1206557,47.307541 L70.7108197,45.3403279 L72.0222951,43.0688525 L75.4321311,45.0360656 L74.7763934,46.1718033 Z M70.6308197,27.1213115 L75.1737705,29.7442623 L73.8622951,32.0144262 L69.3193443,29.3914754 L70.6308197,27.1213115 Z M69.144918,32.32 L70.2793443,32.9757377 L71.415082,33.6314754 L69.4478689,37.0413115 L67.1777049,35.7298361 L69.144918,32.32 Z M61.3232787,35.3757377 L70.4078689,40.6216393 L69.0963934,42.8931148 L67.784918,45.1645902 L58.6990164,39.9186885 L60.0104918,37.6472131 L61.3232787,35.3757377 Z M8.90098361,8.13901639 C10.8013115,4.84983607 14.3436066,3.22229508 17.2944262,4.08393443 L9.5895082,17.442623 C7.3652459,15.3114754 7.00065574,11.4295082 8.90098361,8.13901639 Z M15.6681967,22.6465574 L11.1252459,20.0236066 L20.3055738,4.12327869 L24.8485246,6.74622951 L15.6681967,22.6465574 Z M19.9081967,20.5481967 L25.8098361,10.3265574 L61.0177049,30.6544262 L59.7062295,32.9259016 L55.7718033,39.7455738 L54.4603279,42.0170492 L19.252459,21.6865574 L19.9081967,20.5481967 Z M42.9272131,38.3842623 L41.6157377,40.6557377 C41.1627239,41.4975459 40.2876001,42.02623 39.3316844,42.0355913 C38.3757687,42.0449527 37.4904588,41.5335085 37.0210458,40.7007337 C36.5516328,39.8679589 36.5724621,38.8457482 37.0754098,38.0327869 L38.3868852,35.7613115 L42.9272131,38.3842623 Z M38.0327869,44.4236066 C38.4579254,44.5349977 38.8955928,44.591414 39.335082,44.5914754 C39.7807306,44.5905925 40.2244755,44.5333066 40.6557377,44.4209836 L40.6557377,45.9016393 L38.0327869,45.9016393 L38.0327869,44.4236066 Z M35.4098361,48.5245902 L43.2786885,48.5245902 L43.2786885,51.147541 L35.4098361,51.147541 L35.4098361,48.5245902 Z M28.0839344,61.6393443 L35.9527869,53.7704918 L38.0327869,53.7704918 L38.0327869,71.5881967 L28.0839344,61.6393443 Z M40.6557377,71.5881967 L40.6557377,53.7704918 L42.7357377,53.7704918 L50.6045902,61.6393443 L40.6557377,71.5881967 Z" id="Shape" fill-rule="nonzero"></path>
                    <rect id="Rectangle" transform="translate(35.415569, 26.477114) rotate(-60.000000) translate(-35.415569, -26.477114) " x="34.104094" y="12.7066219" width="2.62295082" height="27.5409836"></rect>
                    <rect id="Rectangle" transform="translate(50.749154, 35.328875) rotate(-60.005000) translate(-50.749154, -35.328875) " x="49.4376787" y="34.0174001" width="2.62295082" height="2.62295082"></rect>
                    <rect id="Rectangle" x="2.62295082" y="35.4098361" width="2.62295082" height="2.62295082"></rect>
                    <rect id="Rectangle" x="2.62295082" y="40.6557377" width="2.62295082" height="2.62295082"></rect>
                    <rect id="Rectangle" x="5.24590164" y="38.0327869" width="2.62295082" height="2.62295082"></rect>
                    <rect id="Rectangle" x="0" y="38.0327869" width="2.62295082" height="2.62295082"></rect>
                    <rect id="Rectangle" x="52.4590164" y="0" width="2.62295082" height="2.62295082"></rect>
                    <rect id="Rectangle" x="52.4590164" y="5.24590164" width="2.62295082" height="2.62295082"></rect>
                    <rect id="Rectangle" x="55.0819672" y="2.62295082" width="2.62295082" height="2.62295082"></rect>
                    <rect id="Rectangle" x="49.8360656" y="2.62295082" width="2.62295082" height="2.62295082"></rect>
                    <rect id="Rectangle" x="73.442623" y="57.704918" width="2.62295082" height="2.62295082"></rect>
                    <rect id="Rectangle" x="73.442623" y="62.9508197" width="2.62295082" height="2.62295082"></rect>
                    <rect id="Rectangle" x="76.0655738" y="60.3278689" width="2.62295082" height="2.62295082"></rect>
                    <rect id="Rectangle" x="70.8196721" y="60.3278689" width="2.62295082" height="2.62295082"></rect>
                </g>
            </g>
        </g>
    </g>
</svg>