<?xml version="1.0" encoding="UTF-8"?>
<svg width="80px" height="80px" viewBox="0 0 80 80" version="1.1" xmlns="http://www.w3.org/2000/svg" xmlns:xlink="http://www.w3.org/1999/xlink">
    <!-- Generator: Sketch 52.6 (67491) - http://www.bohemiancoding.com/sketch -->
    <title>2</title>
    <desc>Created with Sketch.</desc>
    <g id="Page-1" stroke="none" stroke-width="1" fill="none" fill-rule="evenodd">
        <g id="Main" transform="translate(-570.000000, -1533.000000)" fill="#1ABC9C">
            <g id="Group-13" transform="translate(570.000000, 1533.000000)">
                <g id="2">
                    <path d="M56.9908855,41.7747396 C56.6770833,41.4264323 56.2031251,41.264974 55.7460937,41.3580729 C55.2864583,41.4472656 54.907552,41.7708333 54.7473959,42.2109375 L49.7330729,56 L46.6666667,56 C46.2044271,56 45.7760416,56.2395833 45.5325521,56.6321615 C45.2890625,57.0253907 45.2669271,57.516276 45.4739584,57.9296875 L47.1757812,61.3333333 L41.3333333,61.3333333 L41.3333333,46.6666667 L41.3333333,33.3333333 L41.3333333,11.9361979 C42.2226563,12.6549479 43.3385417,13.6497396 44.5390625,14.9375 L46.4895833,13.1184896 C43.3723959,9.7747396 40.78125,8.24544267 40.6718749,8.18164067 C40.6705728,8.18090827 40.669108,8.18066413 40.6678059,8.17993173 C40.6664224,8.17911787 40.6654459,8.1778972 40.6640624,8.17708347 C40.6163736,8.14973973 40.5640461,8.13671893 40.5140787,8.1157228 C40.4569497,8.0917156 40.4018553,8.061198 40.3426105,8.04557307 C40.2758788,8.02783213 40.2072752,8.02579773 40.1390787,8.0185548 C40.0931803,8.01375333 40.0480143,8.001058 40.0018716,8.001058 C39.9112955,8.00081387 39.8218585,8.01700853 39.7327472,8.03523773 C39.7085773,8.04020187 39.6837563,8.03873707 39.6598305,8.04500333 C39.5896808,8.06347667 39.5240884,8.0974936 39.4570311,8.1276856 C39.416992,8.1455892 39.3744301,8.15511067 39.3359373,8.17708333 C39.3345539,8.1778972 39.3335773,8.17911787 39.3321939,8.1799316 C39.3308917,8.180664 39.3294269,8.18090813 39.3281248,8.18164053 C38.6534015,8.5759276 22.9060871,18.0510253 22.6773273,42.1433919 L11.0091144,55.1080728 C10.7890625,55.3528645 10.6666667,55.6705729 10.6666667,56 L10.6666667,78.6666667 C10.6666667,79.3111979 11.1276041,79.8632812 11.7617188,79.9785156 C11.8424479,79.9928385 11.9218751,80 12.0013021,80 C12.5481772,80 13.0507813,79.6621093 13.248698,79.1347656 L20.9244792,58.6666667 L29.3333333,58.6666667 L31.1757812,58.6666667 L29.4739583,62.0703125 C29.2669271,62.483724 29.2890624,62.9746095 29.532552,63.3678385 C29.7760417,63.7604167 30.2044271,64 30.6666667,64 L40,64 L49.3333333,64 C49.7955729,64 50.2239584,63.7604167 50.4674479,63.3678385 C50.7109375,62.9746093 50.7330729,62.483724 50.5260416,62.0703125 L48.8242188,58.6666667 L50.6666667,58.6666667 L59.0755208,58.6666667 L66.751302,79.1347656 C66.9492188,79.6621093 67.4518229,80 67.9986979,80 C68.0781249,80 68.157552,79.9928385 68.2382812,79.9785156 C68.8723959,79.8632812 69.3333333,79.3111979 69.3333333,78.6666667 L69.3333333,56 C69.3333333,55.6705729 69.2109375,55.3528645 68.9908855,55.1080729 L56.9908855,41.7747396 Z M38.6666667,45.1647136 C36.3684896,44.5709636 34.6666667,42.4804688 34.6666667,40 C34.6666667,37.5195312 36.3684896,35.4290364 38.6666667,34.8352864 L38.6666667,45.1647136 Z M38.6666667,11.9518229 L38.6666667,24 L29.3641764,24 C32.3580729,17.7683105 36.3129883,13.8770345 38.6666667,11.9518229 Z M20,56 C19.4440104,56 18.9466145,56.3450521 18.7513021,56.8652344 L13.3333333,71.3138021 L13.3333333,56.5117188 L23.5052084,45.2089844 L27.4296875,56 L20,56 Z M30.2669271,56 L25.3333333,42.4329427 C25.3619792,36.1713867 26.5391439,30.9602864 28.2174479,26.6666667 L38.6666667,26.6666667 L38.6666667,32.1204427 C34.8891601,32.7582195 32,36.0437012 32,40 C32,43.9562988 34.8891601,47.2417805 38.6666667,47.8795573 L38.6666667,56 L33.3333333,56 L30.2669271,56 Z M34.1575521,58.6666667 L38.6666667,58.6666667 L38.6666667,61.3333333 L32.8242188,61.3333333 L34.1575521,58.6666667 Z M66.6666667,71.3138021 L61.2486979,56.8652344 C61.0533855,56.3450521 60.5559896,56 60,56 L52.5703125,56 L56.4947917,45.2089844 L66.6666667,56.5117188 L66.6666667,71.3138021 Z" id="Shape" fill-rule="nonzero"></path>
                    <path d="M35.8984375,0.822916667 C35.6927084,0.324869733 35.2057292,0 34.6666667,0 L1.33333333,0 C0.596354133,0 0,0.5970052 0,1.33333333 L0,34.6666667 C0,35.2057292 0.3242188,35.6920573 0.822916667,35.8984375 C0.9882812,35.9667969 1.1614584,36 1.33333333,36 C1.67968747,36 2.02083333,35.8645833 2.27604173,35.6093749 L35.6093751,2.2760416 C35.9908855,1.8945312 36.1054688,1.32161453 35.8984375,0.822916667 Z M26,8.11458333 L24.9427083,7.0572916 L23.0572916,8.94270827 L24.1145833,10 L22,12.1145833 L20.9427083,11.0572916 L19.0572916,12.9427083 L20.1145833,14 L18,16.1145833 L16.9427083,15.0572916 L15.0572916,16.9427083 L16.1145833,18 L14,20.1145833 L12.9427083,19.0572916 L11.0572916,20.9427083 L12.1145833,22 L10,24.1145833 L8.94270827,23.0572916 L7.0572916,24.9427083 L8.11458333,26 L2.66666667,31.4479167 L2.66666667,2.66666667 L31.4479167,2.66666667 L26,8.11458333 Z" id="Shape" fill-rule="nonzero"></path>
                    <path d="M6.12760413,21.2194011 C6.3007812,21.296224 6.48437507,21.3333333 6.66666667,21.3333333 C6.99218747,21.3333333 7.31380213,21.2141927 7.56380213,20.9863281 L22.2304688,7.6529948 C22.6380209,7.28255213 22.7760417,6.69986973 22.5768229,6.18554693 C22.3789063,5.67187507 21.8841145,5.33333333 21.3333333,5.33333333 L6.66666667,5.33333333 C5.92968747,5.33333333 5.33333333,5.93033853 5.33333333,6.66666667 L5.33333333,20 C5.33333333,20.5279948 5.6445312,21.0058593 6.12760413,21.2194011 Z M8,8 L17.8841145,8 L8,16.9856771 L8,8 Z" id="Shape" fill-rule="nonzero"></path>
                    <path d="M78.6666667,10.6666667 L70.6666667,10.6666667 L60,10.6666667 L60,4 C60,1.7942708 58.2057292,0 56,0 C53.7942708,0 52,1.7942708 52,4 L52,11.4479167 L47.0572916,16.3906251 C46.8072917,16.6406251 46.6666667,16.9798177 46.6666667,17.3333333 L46.6666667,25.3333333 C46.6666667,26.0696615 47.2630208,26.6666667 48,26.6666667 L52,26.6666667 L52,28 L52,34.6666667 C52,35.0201823 52.1406251,35.3593751 52.3906251,35.6093751 L55.0572917,38.2760417 C55.3177084,38.5364584 55.6588541,38.6666667 56,38.6666667 C56.3411459,38.6666667 56.6822917,38.5364583 56.9427084,38.2760416 L59.6093751,35.6093749 C59.8593751,35.3593751 60,35.0201823 60,34.6666667 L60,29.3333333 L61.3333333,29.3333333 C61.6875,29.3333333 62.0260417,29.1927083 62.2760417,28.9427083 L65.8854167,25.3333333 L70.6666667,25.3333333 L78.6666667,25.3333333 C79.4036459,25.3333333 80,24.7363281 80,24 L80,12 C80,11.2636719 79.4036459,10.6666667 78.6666667,10.6666667 Z M55.2562663,21.4060872 C55.1789551,21.4204915 55.1061197,21.4455567 55.030192,21.464274 C54.9084472,21.4943848 54.7839356,21.5167643 54.6666667,21.5579427 L54.6666667,8 L57.3333333,8 L57.3333333,12 L57.3333333,21.3333333 L56,21.3333333 C55.7466635,21.3333333 55.4988607,21.361084 55.2562663,21.4060872 Z M56,2.66666667 C56.7356771,2.66666667 57.3333333,3.264974 57.3333333,4 L57.3333333,5.33333333 L54.6666667,5.33333333 L54.6666667,4 C54.6666667,3.264974 55.2643229,2.66666667 56,2.66666667 Z M49.3333333,17.8854167 L52,15.21875 L52,24 L49.3333333,24 L49.3333333,17.8854167 Z M57.3333333,34.1145833 L56,35.4479167 L54.6666667,34.1145833 L54.6666667,29.3333333 L57.3333333,29.3333333 L57.3333333,34.1145833 Z M65.3333333,22.6666667 C64.9791667,22.6666667 64.6406249,22.8072917 64.3906249,23.0572917 L60.78125,26.6666667 L58.6666667,26.6666667 L54.6666667,26.6666667 L54.6666667,25.3333333 C54.6666667,24.9772136 54.8033855,24.6490885 55.0755208,24.3834636 C55.3151041,24.1360677 55.6445312,24 56,24 L58.6666667,24 C59.4036459,24 60,23.4029948 60,22.6666667 L60,13.3333333 L69.3333333,13.3333333 L69.3333333,22.6666667 L65.3333333,22.6666667 Z M77.3333333,22.6666667 L72,22.6666667 L72,13.3333333 L77.3333333,13.3333333 L77.3333333,22.6666667 Z" id="Shape" fill-rule="nonzero"></path>
                    <polygon id="Path" points="54.6666667 73.3333333 52 73.3333333 52 70.6666667 49.3333333 70.6666667 49.3333333 73.3333333 46.6666667 73.3333333 46.6666667 68 44 68 44 73.3333333 41.3333333 73.3333333 41.3333333 70.6666667 38.6666667 70.6666667 38.6666667 73.3333333 36 73.3333333 36 68 33.3333333 68 33.3333333 73.3333333 30.6666667 73.3333333 30.6666667 70.6666667 28 70.6666667 28 73.3333333 25.3333333 73.3333333 25.3333333 68 22.6666667 68 22.6666667 73.3333333 22.6666667 74.6666667 22.6666667 76 57.3333333 76 57.3333333 74.6666667 57.3333333 73.3333333 57.3333333 68 54.6666667 68"></polygon>
                </g>
            </g>
        </g>
    </g>
</svg>