<?xml version="1.0" encoding="UTF-8"?>
<svg width="80px" height="80px" viewBox="0 0 80 80" version="1.1" xmlns="http://www.w3.org/2000/svg" xmlns:xlink="http://www.w3.org/1999/xlink">
    <!-- Generator: Sketch 52.6 (67491) - http://www.bohemiancoding.com/sketch -->
    <title>3</title>
    <desc>Created with Sketch.</desc>
    <g id="Page-1" stroke="none" stroke-width="1" fill="none" fill-rule="evenodd">
        <g id="Main" transform="translate(-890.000000, -1533.000000)" fill-rule="nonzero">
            <g id="Group-14" transform="translate(890.000000, 1533.000000)">
                <g id="Group">
                    <rect id="Rectangle" x="0" y="0" width="80" height="80"></rect>
                    <path d="M54.3548552,35.0051311 L68.2566671,50.1196974 C68.5131745,50.3985982 68.6338002,50.7756878 68.5865844,51.1510565 L65.9989973,71.7782367 C65.9181037,72.4232712 65.3679224,72.9073913 64.7155541,72.9075748 L62.127967,72.9075748 C61.4895461,72.9073327 60.9467389,72.4430961 60.8496989,71.8143342 L58.3850222,55.8592103 L46.7965132,52.3951333 C46.5092911,52.5885131 46.2181875,52.7728685 45.9232026,52.9430427 L49.0050188,58.062451 C49.2451169,58.4606621 49.2516418,58.9567946 49.0220987,59.3611385 C48.7925557,59.7654824 48.3624475,60.0154988 47.8962378,60.0155871 L47.5934901,60.0155871 L50.2988124,64.5084448 C50.5389104,64.906656 50.5454354,65.4027884 50.3158923,65.8071323 C50.0863492,66.2114762 49.656241,66.4614926 49.1900313,66.461581 L47.2195837,66.461581 L49.098172,71.1400833 C49.257442,71.5373289 49.2085926,71.9874269 48.967775,72.3415585 C48.7269575,72.6956902 48.325537,72.9077318 47.8962378,72.9075748 L42.2268344,72.9075748 L39.997628,77.3514429 C39.7787654,77.7890157 39.3303334,78.0655738 38.8396828,78.0655738 C38.3490322,78.0655738 37.9006002,77.7890157 37.6817376,77.3514429 L35.4525313,72.9075748 L29.7831279,72.9075748 C29.3538286,72.9077318 28.9524081,72.6956902 28.7115906,72.3415585 C28.470773,71.9874269 28.4219236,71.5373289 28.5811936,71.1400833 L30.4597819,66.461581 L27.1955407,66.461581 C26.6980209,66.461767 26.2444671,66.1776651 26.0289505,65.7308397 C25.813434,65.2840144 25.874138,64.7536299 26.185088,64.366633 L29.6886809,60.0026952 C29.2407063,59.9739218 28.8403747,59.7140159 28.6329801,59.3173061 C28.4255854,58.9205963 28.441272,58.4447436 28.6743468,58.062451 L31.756163,52.9430427 C31.4611781,52.7728685 31.1700746,52.5885131 30.8828524,52.3951333 L19.2943434,55.8592103 L16.8296667,71.8143342 C16.7326268,72.4430961 16.1898195,72.9073327 15.5513986,72.9075748 L12.9638115,72.9075748 C12.3114432,72.9073913 11.7612619,72.4232712 11.6803683,71.7782367 L9.09278117,51.1510565 C9.04556542,50.7756878 9.16619112,50.3985982 9.42269853,50.1196974 L23.3245104,35.0051311 C23.527636,22.628823 31.0924469,2.00164279 38.8396828,2.00164279 C46.5869187,2.00164279 54.1517296,22.628823 54.3548552,35.0051311 Z M38.8396828,4.58004032 C36.6932793,4.58004032 34.1160425,7.73728809 31.8273217,12.3152329 L45.8520439,12.3152329 C43.5633231,7.73728809 40.9860863,4.58004032 38.8396828,4.58004032 Z M30.634444,14.8936304 C27.778343,21.4146401 26.1731077,28.4109634 25.9017472,35.5208106 C25.9017472,47.035934 32.608773,52.2803946 38.8396828,52.2803946 C45.0705926,52.2803946 51.7776184,47.035934 51.7776184,35.5208106 C51.5062579,28.4109634 49.9010226,21.4146401 47.0449216,14.8936304 L30.634444,14.8936304 Z M17.767667,53.6237397 L28.5177977,50.4097672 C25.5563899,47.1655588 23.7847196,43.0177148 23.4914097,38.6419609 L11.7347076,51.4230774 L14.1062312,70.3291773 L14.4413238,70.3291773 L16.8620115,54.6628339 C16.9375908,54.171445 17.2899757,53.76714 17.767667,53.6237397 Z M46.9038981,63.8831834 L44.5763635,60.0155871 L41.927968,60.0155871 L42.6537862,62.1865979 C42.7803108,62.5639204 42.7249249,62.9783156 42.5037062,63.30949 L39.9161191,67.1770863 C39.676155,67.5356835 39.2722252,67.751069 38.8396828,67.751069 C38.4071404,67.751069 38.0032106,67.5356835 37.7632466,67.1770863 L35.1756594,63.30949 C34.9544407,62.9783156 34.8990548,62.5639204 35.0255794,62.1865979 L35.7513976,60.0155871 L32.9930297,60.0155871 L29.8879251,63.8831834 L32.370715,63.8831834 C32.8000142,63.8830264 33.2014347,64.095068 33.4422523,64.4491997 C33.6830698,64.8033314 33.7319193,65.2534294 33.5726492,65.6506749 L31.6940609,70.3291773 L36.2520957,70.3291773 C36.7448054,70.3264973 37.1962727,70.6029137 37.4165099,71.0421042 L38.8396828,73.8925226 L40.2628557,71.0421042 C40.4830929,70.6029137 40.9345602,70.3264973 41.4272699,70.3291773 L45.9853047,70.3291773 L44.1067164,65.6506749 C43.9474463,65.2534294 43.9962958,64.8033314 44.2371133,64.4491997 C44.4779309,64.095068 44.8793514,63.8830264 45.3086506,63.8831834 L46.9038981,63.8831834 Z M39.2006512,60.0155871 L38.4787144,60.0155871 L37.6752686,62.4083401 L38.8396828,64.1410232 L39.9989218,62.4044725 L39.2006512,60.0155871 Z M45.6101045,57.4371896 L43.5568541,54.0246805 C40.5110342,55.1364429 37.1683314,55.1364429 34.1225115,54.0246805 L32.0692611,57.4371896 L45.6101045,57.4371896 Z M63.5731344,70.3291773 L65.9459518,51.4230774 L54.1892497,38.6419609 C53.8959398,43.0177148 52.1242695,47.1655588 49.1628617,50.4097672 L59.9129924,53.6237397 C60.3906837,53.76714 60.7430686,54.171445 60.8186479,54.6628339 L63.2380418,70.3291773 L63.5731344,70.3291773 Z M38.8396828,35.5208106 C33.8405453,35.5144183 29.789543,31.4778028 29.7831279,26.4964193 C29.7831279,21.5123856 33.8378856,17.472028 38.8396828,17.472028 C43.84148,17.472028 47.8962378,21.5123856 47.8962378,26.4964193 C47.8962378,31.480453 43.84148,35.5208106 38.8396828,35.5208106 Z M38.8396828,20.0504255 C35.2687438,20.0546877 32.3749924,22.9381622 32.370715,26.4964193 C32.370715,30.0564434 35.2669705,32.9424131 38.8396828,32.9424131 C42.4123951,32.9424131 45.3086506,30.0564434 45.3086506,26.4964193 C45.3086506,22.9363952 42.4123951,20.0504255 38.8396828,20.0504255 Z M33.8546962,48.4837042 C30.0920715,45.4886262 27.8836765,40.9639275 27.8424375,36.16541 L30.4300246,36.16541 C30.4629046,40.1726729 32.3070636,43.951613 35.4499437,46.451927 L33.8546962,48.4837042 Z M36.0626747,50.2158586 L37.2812996,47.9413001 L39.5365728,49.1410256 L38.3179479,51.4155841 L36.0626747,50.2158586 Z M41.9577253,26.9283009 L41.9525501,26.9321685 C42.0140425,26.1789268 41.758291,25.4341448 41.2465953,24.8763353 C40.7348995,24.3185258 40.0133861,23.9979721 39.2549905,23.9915061 L39.2756912,21.4131086 C40.7512452,21.4361823 42.1533158,22.0588194 43.1570719,23.1367673 C44.151603,24.2245094 44.6495049,25.6741718 44.5323745,27.1410187 L41.9577253,26.9283009 Z M72.4783155,17.472028 C74.1085432,17.4775524 75.6447536,16.7121751 76.6184549,15.4093099 L78.6885246,16.9563485 C77.2281775,18.91089 74.9237298,20.0590218 72.4783155,20.0504255 L60.8341734,20.0504255 C57.2614611,20.0504255 54.3652056,17.1644557 54.3652056,13.6044317 C54.3652056,10.0444076 57.2614611,7.15843785 60.8341734,7.15843785 L60.9635528,7.15843785 C61.472442,4.67148231 63.3985789,2.71359202 65.8837735,2.15710467 C68.3689681,1.60061733 70.9505577,2.54913287 72.4783155,4.58004032 C74.9237784,4.5712375 77.2283142,5.71941324 78.6885246,7.67411735 L76.6184549,9.22115587 C75.6455746,7.91731421 74.1088346,7.15167299 72.4783155,7.15843785 C72.304848,7.15887373 72.1315759,7.17006844 71.9595043,7.19195702 C71.4410702,7.25664717 70.9350282,7.00172058 70.6799424,6.54735763 C69.8115471,5.02048731 68.020257,4.26765336 66.3167995,4.71363895 C64.6133419,5.15962455 63.4247825,6.6926188 63.4217605,8.44763661 C63.4216144,8.80040471 63.277262,9.13789284 63.0219783,9.38230572 C62.5769133,9.80903051 62.159018,9.79484932 60.7824217,9.73683538 C58.6387943,9.75107547 56.912626,11.4942012 56.9269168,13.6302156 C56.9412077,15.7662301 58.690546,17.4862681 60.8341734,17.472028 L72.4783155,17.472028 Z M12.9638115,34.2316119 C15.1074389,34.2316119 16.8451922,32.50003 16.8451922,30.3640156 C16.8451922,28.2280011 15.1074389,26.4964193 12.9638115,26.4964193 C11.6389669,26.5492764 11.2210716,26.5686144 10.7760066,26.1406004 C10.5210464,25.8964979 10.3767221,25.5595409 10.3762244,25.2072205 C10.3729284,23.4513403 9.18298648,21.9180039 7.47835399,21.4730805 C5.77372151,21.028157 3.98220014,21.7833062 3.1154549,23.3120984 C2.88388517,23.7117665 2.45558246,23.9576085 1.99244209,23.9566977 L1.96656622,23.9566977 L0,23.9180218 L0.0517517426,21.3396242 L1.30414391,21.3654082 C2.8253856,19.3230239 5.40966238,18.3629437 7.90144022,18.9144579 C10.3932181,19.4659722 12.3265712,21.425956 12.8370197,23.9180218 L12.9146474,23.9180218 C15.225787,23.9092706 17.3660534,25.1297837 18.529229,27.1198055 C19.6924046,29.1098274 19.7017752,31.5670264 18.5538111,33.5657994 C17.405847,35.5645725 15.2749512,36.8012583 12.9638115,36.8100094 L0.0258758713,36.8100094 L0.0258758713,34.2316119 L12.9638115,34.2316119 Z" id="Combined-Shape" fill="#1ABC9C"></path>
                </g>
            </g>
        </g>
    </g>
</svg>